<svg width="226" height="47" viewBox="0 0 226 47" fill="none" xmlns="http://www.w3.org/2000/svg">
<path d="M41.434 23.832C41.434 21.656 41.9353 19.704 42.938 17.976C43.962 16.248 45.338 14.904 47.066 13.944C48.8153 12.9627 50.7247 12.472 52.794 12.472C55.162 12.472 57.2633 13.0587 59.098 14.232C60.954 15.384 62.298 17.0267 63.13 19.16H58.746C58.17 17.9867 57.37 17.112 56.346 16.536C55.322 15.96 54.138 15.672 52.794 15.672C51.322 15.672 50.01 16.0027 48.858 16.664C47.706 17.3253 46.7993 18.2747 46.138 19.512C45.498 20.7493 45.178 22.1893 45.178 23.832C45.178 25.4747 45.498 26.9147 46.138 28.152C46.7993 29.3893 47.706 30.3493 48.858 31.032C50.01 31.6933 51.322 32.024 52.794 32.024C54.138 32.024 55.322 31.736 56.346 31.16C57.37 30.584 58.17 29.7093 58.746 28.536H63.13C62.298 30.6693 60.954 32.312 59.098 33.464C57.2633 34.616 55.162 35.192 52.794 35.192C50.7033 35.192 48.794 34.712 47.066 33.752C45.338 32.7707 43.962 31.416 42.938 29.688C41.9353 27.96 41.434 26.008 41.434 23.832ZM75.048 35.288C73.384 35.288 71.88 34.9147 70.536 34.168C69.192 33.4 68.136 32.3333 67.368 30.968C66.6 29.5813 66.216 27.9813 66.216 26.168C66.216 24.376 66.6107 22.7867 67.4 21.4C68.1893 20.0133 69.2667 18.9467 70.632 18.2C71.9973 17.4533 73.5227 17.08 75.208 17.08C76.8933 17.08 78.4187 17.4533 79.784 18.2C81.1493 18.9467 82.2267 20.0133 83.016 21.4C83.8053 22.7867 84.2 24.376 84.2 26.168C84.2 27.96 83.7947 29.5493 82.984 30.936C82.1733 32.3227 81.064 33.4 79.656 34.168C78.2693 34.9147 76.7333 35.288 75.048 35.288ZM75.048 32.12C75.9867 32.12 76.8613 31.896 77.672 31.448C78.504 31 79.176 30.328 79.688 29.432C80.2 28.536 80.456 27.448 80.456 26.168C80.456 24.888 80.2107 23.8107 79.72 22.936C79.2293 22.04 78.5787 21.368 77.768 20.92C76.9573 20.472 76.0827 20.248 75.144 20.248C74.2053 20.248 73.3307 20.472 72.52 20.92C71.7307 21.368 71.1013 22.04 70.632 22.936C70.1627 23.8107 69.928 24.888 69.928 26.168C69.928 28.0667 70.408 29.5387 71.368 30.584C72.3493 31.608 73.576 32.12 75.048 32.12ZM91.4543 11.32V35H87.8063V11.32H91.4543ZM99.8918 11.32V35H96.2438V11.32H99.8918ZM120.841 25.752C120.841 26.4133 120.799 27.0107 120.713 27.544H107.241C107.348 28.952 107.871 30.0827 108.809 30.936C109.748 31.7893 110.9 32.216 112.265 32.216C114.228 32.216 115.615 31.3947 116.425 29.752H120.361C119.828 31.3733 118.857 32.7067 117.449 33.752C116.063 34.776 114.335 35.288 112.265 35.288C110.58 35.288 109.065 34.9147 107.721 34.168C106.399 33.4 105.353 32.3333 104.585 30.968C103.839 29.5813 103.465 27.9813 103.465 26.168C103.465 24.3547 103.828 22.7653 104.553 21.4C105.3 20.0133 106.335 18.9467 107.657 18.2C109.001 17.4533 110.537 17.08 112.265 17.08C113.929 17.08 115.412 17.4427 116.713 18.168C118.015 18.8933 119.028 19.9173 119.753 21.24C120.479 22.5413 120.841 24.0453 120.841 25.752ZM117.033 24.6C117.012 23.256 116.532 22.1787 115.593 21.368C114.655 20.5573 113.492 20.152 112.105 20.152C110.847 20.152 109.769 20.5573 108.873 21.368C107.977 22.1573 107.444 23.2347 107.273 24.6H117.033ZM123.215 26.168C123.215 24.3547 123.578 22.7653 124.303 21.4C125.05 20.0133 126.074 18.9467 127.375 18.2C128.677 17.4533 130.17 17.08 131.855 17.08C133.989 17.08 135.749 17.592 137.135 18.616C138.543 19.6187 139.493 21.0587 139.983 22.936H136.047C135.727 22.0613 135.215 21.3787 134.511 20.888C133.807 20.3973 132.922 20.152 131.855 20.152C130.362 20.152 129.167 20.6853 128.271 21.752C127.397 22.7973 126.959 24.2693 126.959 26.168C126.959 28.0667 127.397 29.5493 128.271 30.616C129.167 31.6827 130.362 32.216 131.855 32.216C133.967 32.216 135.365 31.288 136.047 29.432H139.983C139.471 31.224 138.511 32.6533 137.103 33.72C135.695 34.7653 133.946 35.288 131.855 35.288C130.17 35.288 128.677 34.9147 127.375 34.168C126.074 33.4 125.05 32.3333 124.303 30.968C123.578 29.5813 123.215 27.9813 123.215 26.168ZM147.875 20.344V30.104C147.875 30.7653 148.024 31.2453 148.323 31.544C148.643 31.8213 149.176 31.96 149.923 31.96H152.163V35H149.283C147.64 35 146.381 34.616 145.507 33.848C144.632 33.08 144.195 31.832 144.195 30.104V20.344H142.115V17.368H144.195V12.984H147.875V17.368H152.163V20.344H147.875ZM157.381 15.032C156.72 15.032 156.165 14.808 155.717 14.36C155.269 13.912 155.045 13.3573 155.045 12.696C155.045 12.0347 155.269 11.48 155.717 11.032C156.165 10.584 156.72 10.36 157.381 10.36C158.021 10.36 158.565 10.584 159.013 11.032C159.461 11.48 159.685 12.0347 159.685 12.696C159.685 13.3573 159.461 13.912 159.013 14.36C158.565 14.808 158.021 15.032 157.381 15.032ZM159.173 17.368V35H155.525V17.368H159.173ZM171.611 35.288C169.947 35.288 168.443 34.9147 167.099 34.168C165.755 33.4 164.699 32.3333 163.931 30.968C163.163 29.5813 162.779 27.9813 162.779 26.168C162.779 24.376 163.173 22.7867 163.963 21.4C164.752 20.0133 165.829 18.9467 167.195 18.2C168.56 17.4533 170.085 17.08 171.771 17.08C173.456 17.08 174.981 17.4533 176.347 18.2C177.712 18.9467 178.789 20.0133 179.579 21.4C180.368 22.7867 180.763 24.376 180.763 26.168C180.763 27.96 180.357 29.5493 179.547 30.936C178.736 32.3227 177.627 33.4 176.219 34.168C174.832 34.9147 173.296 35.288 171.611 35.288ZM171.611 32.12C172.549 32.12 173.424 31.896 174.235 31.448C175.067 31 175.739 30.328 176.251 29.432C176.763 28.536 177.019 27.448 177.019 26.168C177.019 24.888 176.773 23.8107 176.283 22.936C175.792 22.04 175.141 21.368 174.331 20.92C173.52 20.472 172.645 20.248 171.707 20.248C170.768 20.248 169.893 20.472 169.083 20.92C168.293 21.368 167.664 22.04 167.195 22.936C166.725 23.8107 166.491 24.888 166.491 26.168C166.491 28.0667 166.971 29.5387 167.931 30.584C168.912 31.608 170.139 32.12 171.611 32.12ZM193.265 17.08C194.651 17.08 195.889 17.368 196.977 17.944C198.086 18.52 198.95 19.3733 199.569 20.504C200.187 21.6347 200.497 23 200.497 24.6V35H196.881V25.144C196.881 23.5653 196.486 22.36 195.697 21.528C194.907 20.6747 193.83 20.248 192.465 20.248C191.099 20.248 190.011 20.6747 189.201 21.528C188.411 22.36 188.017 23.5653 188.017 25.144V35H184.369V17.368H188.017V19.384C188.614 18.6587 189.371 18.0933 190.289 17.688C191.227 17.2827 192.219 17.08 193.265 17.08Z" fill="#C2D9FF"/>
<g clip-path="url(#clip0_143_843)">
<path fill-rule="evenodd" clip-rule="evenodd" d="M12.75 14.0833C12.75 13.3319 13.0485 12.6112 13.5799 12.0799C14.1112 11.5485 14.8319 11.25 15.5833 11.25H18.4167C19.1681 11.25 19.8888 11.5485 20.4201 12.0799C20.9515 12.6112 21.25 13.3319 21.25 14.0833V19.75H26.9167C27.6681 19.75 28.3888 20.0485 28.9201 20.5799C29.4515 21.1112 29.75 21.8319 29.75 22.5833V25.4167C29.75 26.1681 29.4515 26.8888 28.9201 27.4201C28.3888 27.9515 27.6681 28.25 26.9167 28.25H21.25V33.9167C21.25 34.6681 20.9515 35.3888 20.4201 35.9201C19.8888 36.4515 19.1681 36.75 18.4167 36.75H15.5833C14.8319 36.75 14.1112 36.4515 13.5799 35.9201C13.0485 35.3888 12.75 34.6681 12.75 33.9167V28.25H7.08333C6.33189 28.25 5.61122 27.9515 5.07986 27.4201C4.54851 26.8888 4.25 26.1681 4.25 25.4167V22.5833C4.25 21.8319 4.54851 21.1112 5.07986 20.5799C5.61122 20.0485 6.33189 19.75 7.08333 19.75H12.75V14.0833ZM18.4167 14.0833H15.5833V21.1667C15.5833 21.5424 15.4341 21.9027 15.1684 22.1684C14.9027 22.4341 14.5424 22.5833 14.1667 22.5833H7.08333V25.4167H14.1667C14.5424 25.4167 14.9027 25.5659 15.1684 25.8316C15.4341 26.0973 15.5833 26.4576 15.5833 26.8333V33.9167H18.4167V26.8333C18.4167 26.4576 18.5659 26.0973 18.8316 25.8316C19.0973 25.5659 19.4576 25.4167 19.8333 25.4167H26.9167V22.5833H19.8333C19.4576 22.5833 19.0973 22.4341 18.8316 22.1684C18.5659 21.9027 18.4167 21.5424 18.4167 21.1667V14.0833Z" fill="#C2D9FF"/>
</g>
<defs>
<clipPath id="clip0_143_843">
<rect width="34" height="34" fill="white" transform="translate(0 7)"/>
</clipPath>
</defs>
</svg>
