<svg width="40" height="40" viewBox="0 0 40 40" fill="none" xmlns="http://www.w3.org/2000/svg">
<path d="M15 8.33334C15 7.89131 14.8244 7.46739 14.5118 7.15483C14.1993 6.84227 13.7753 6.66667 13.3333 6.66667H9.99998C9.55795 6.66667 9.13403 6.84227 8.82147 7.15483C8.50891 7.46739 8.33331 7.89131 8.33331 8.33334V31.6667C8.33331 32.1087 8.50891 32.5326 8.82147 32.8452C9.13403 33.1577 9.55795 33.3333 9.99998 33.3333H13.3333C13.7753 33.3333 14.1993 33.1577 14.5118 32.8452C14.8244 32.5326 15 32.1087 15 31.6667M15 8.33334V31.6667M15 8.33334C15 7.89131 15.1756 7.46739 15.4881 7.15483C15.8007 6.84227 16.2246 6.66667 16.6666 6.66667H20C20.442 6.66667 20.8659 6.84227 21.1785 7.15483C21.4911 7.46739 21.6666 7.89131 21.6666 8.33334V31.6667C21.6666 32.1087 21.4911 32.5326 21.1785 32.8452C20.8659 33.1577 20.442 33.3333 20 33.3333H16.6666C16.2246 33.3333 15.8007 33.1577 15.4881 32.8452C15.1756 32.5326 15 32.1087 15 31.6667M8.33331 13.3333H15M15 26.6667H21.6666" stroke="#C2D9FF" stroke-width="3.33333" stroke-linecap="round" stroke-linejoin="round"/>
<path d="M23.3333 15L30 13.3333M26.6667 26.6667L33.205 25.0333M23.005 7.6L26.645 6.71667C27.5817 6.49167 28.5333 7.03334 28.7817 7.93667L34.94 30.3C35.0487 30.7094 35.0005 31.1447 34.8051 31.5204C34.6096 31.8962 34.2809 32.1855 33.8833 32.3317L33.6617 32.4L30.0217 33.2833C29.085 33.5083 28.1333 32.9667 27.885 32.0633L21.7267 9.7C21.618 9.29059 21.6661 8.85536 21.8616 8.47956C22.057 8.10376 22.3858 7.81447 22.7833 7.66834L23.005 7.6Z" stroke="#C2D9FF" stroke-width="3.33333" stroke-linecap="round" stroke-linejoin="round"/>
</svg>
