<svg width="40" height="40" viewBox="0 0 40 40" fill="none" xmlns="http://www.w3.org/2000/svg">
<path d="M25 6.66667C23.2319 6.66667 21.5362 7.36905 20.286 8.61929C19.0357 9.86953 18.3334 11.5652 18.3334 13.3333C18.3334 15.1014 19.0357 16.7971 20.286 18.0474C21.5362 19.2976 23.2319 20 25 20C26.7681 20 28.4638 19.2976 29.7141 18.0474C30.9643 16.7971 31.6667 15.1014 31.6667 13.3333C31.6667 11.5652 30.9643 9.86953 29.7141 8.61929C28.4638 7.36905 26.7681 6.66667 25 6.66667ZM25 9.83333C25.4596 9.83333 25.9148 9.92386 26.3394 10.0998C26.764 10.2756 27.1499 10.5335 27.4749 10.8585C27.7999 11.1835 28.0577 11.5693 28.2336 11.9939C28.4095 12.4186 28.5 12.8737 28.5 13.3333C28.5 13.793 28.4095 14.2481 28.2336 14.6727C28.0577 15.0974 27.7999 15.4832 27.4749 15.8082C27.1499 16.1332 26.764 16.391 26.3394 16.5669C25.9148 16.7428 25.4596 16.8333 25 16.8333C24.5404 16.8333 24.0853 16.7428 23.6606 16.5669C23.236 16.391 22.8501 16.1332 22.5251 15.8082C22.2001 15.4832 21.9423 15.0974 21.7664 14.6727C21.5905 14.2481 21.5 13.793 21.5 13.3333C21.5 12.4051 21.8688 11.5148 22.5251 10.8585C23.1815 10.2021 24.0718 9.83333 25 9.83333ZM6.66669 11.6667V16.6667H1.66669V20H6.66669V25H10V20H15V16.6667H10V11.6667H6.66669ZM25 21.6667C20.55 21.6667 11.6667 23.8833 11.6667 28.3333V33.3333H38.3334V28.3333C38.3334 23.8833 29.45 21.6667 25 21.6667ZM25 24.8333C29.95 24.8333 35.1667 27.2667 35.1667 28.3333V30.1667H14.8334V28.3333C14.8334 27.2667 20 24.8333 25 24.8333Z" fill="#C2D9FF"/>
</svg>
