<svg width="182" height="23" viewBox="0 0 182 23" fill="none" xmlns="http://www.w3.org/2000/svg">
<path d="M0.11 11.53C0.11 9.49 0.58 7.66 1.52 6.04C2.48 4.42 3.77 3.16 5.39 2.26C7.03 1.34 8.82 0.879998 10.76 0.879998C12.98 0.879998 14.95 1.43 16.67 2.53C18.41 3.61 19.67 5.15 20.45 7.15H16.34C15.8 6.05 15.05 5.23 14.09 4.69C13.13 4.15 12.02 3.88 10.76 3.88C9.38 3.88 8.15 4.19 7.07 4.81C5.99 5.43 5.14 6.32 4.52 7.48C3.92 8.64 3.62 9.99 3.62 11.53C3.62 13.07 3.92 14.42 4.52 15.58C5.14 16.74 5.99 17.64 7.07 18.28C8.15 18.9 9.38 19.21 10.76 19.21C12.02 19.21 13.13 18.94 14.09 18.4C15.05 17.86 15.8 17.04 16.34 15.94H20.45C19.67 17.94 18.41 19.48 16.67 20.56C14.95 21.64 12.98 22.18 10.76 22.18C8.8 22.18 7.01 21.73 5.39 20.83C3.77 19.91 2.48 18.64 1.52 17.02C0.58 15.4 0.11 13.57 0.11 11.53ZM37.0231 17.74H28.2931L26.7931 22H23.2231L30.6931 1.12H34.6531L42.1231 22H38.5231L37.0231 17.74ZM36.0631 14.95L32.6731 5.26L29.2531 14.95H36.0631ZM58.8411 1.15V3.94H53.2911V22H49.8711V3.94H44.2911V1.15H58.8411ZM65.7247 3.91V10.03H72.9247V12.82H65.7247V19.21H73.8247V22H62.3047V1.12H73.8247V3.91H65.7247ZM93.1271 7.15C92.5871 6.11 91.8371 5.33 90.8771 4.81C89.9171 4.27 88.8071 4 87.5471 4C86.1671 4 84.9371 4.31 83.8571 4.93C82.7771 5.55 81.9271 6.43 81.3071 7.57C80.7071 8.71 80.4071 10.03 80.4071 11.53C80.4071 13.03 80.7071 14.36 81.3071 15.52C81.9271 16.66 82.7771 17.54 83.8571 18.16C84.9371 18.78 86.1671 19.09 87.5471 19.09C89.4071 19.09 90.9171 18.57 92.0771 17.53C93.2371 16.49 93.9471 15.08 94.2071 13.3H86.3771V10.57H97.8671V13.24C97.6471 14.86 97.0671 16.35 96.1271 17.71C95.2071 19.07 93.9971 20.16 92.4971 20.98C91.0171 21.78 89.3671 22.18 87.5471 22.18C85.5871 22.18 83.7971 21.73 82.1771 20.83C80.5571 19.91 79.2671 18.64 78.3071 17.02C77.3671 15.4 76.8971 13.57 76.8971 11.53C76.8971 9.49 77.3671 7.66 78.3071 6.04C79.2671 4.42 80.5571 3.16 82.1771 2.26C83.8171 1.34 85.6071 0.879998 87.5471 0.879998C89.7671 0.879998 91.7371 1.43 93.4571 2.53C95.1971 3.61 96.4571 5.15 97.2371 7.15H93.1271ZM110.75 22.21C108.81 22.21 107.02 21.76 105.38 20.86C103.76 19.94 102.47 18.67 101.51 17.05C100.57 15.41 100.1 13.57 100.1 11.53C100.1 9.49 100.57 7.66 101.51 6.04C102.47 4.42 103.76 3.16 105.38 2.26C107.02 1.34 108.81 0.879998 110.75 0.879998C112.71 0.879998 114.5 1.34 116.12 2.26C117.76 3.16 119.05 4.42 119.99 6.04C120.93 7.66 121.4 9.49 121.4 11.53C121.4 13.57 120.93 15.41 119.99 17.05C119.05 18.67 117.76 19.94 116.12 20.86C114.5 21.76 112.71 22.21 110.75 22.21ZM110.75 19.24C112.13 19.24 113.36 18.93 114.44 18.31C115.52 17.67 116.36 16.77 116.96 15.61C117.58 14.43 117.89 13.07 117.89 11.53C117.89 9.99 117.58 8.64 116.96 7.48C116.36 6.32 115.52 5.43 114.44 4.81C113.36 4.19 112.13 3.88 110.75 3.88C109.37 3.88 108.14 4.19 107.06 4.81C105.98 5.43 105.13 6.32 104.51 7.48C103.91 8.64 103.61 9.99 103.61 11.53C103.61 13.07 103.91 14.43 104.51 15.61C105.13 16.77 105.98 17.67 107.06 18.31C108.14 18.93 109.37 19.24 110.75 19.24ZM135.596 22L130.796 13.66H128.186V22H124.766V1.15H131.966C133.566 1.15 134.916 1.43 136.016 1.99C137.136 2.55 137.966 3.3 138.506 4.24C139.066 5.18 139.346 6.23 139.346 7.39C139.346 8.75 138.946 9.99 138.146 11.11C137.366 12.21 136.156 12.96 134.516 13.36L139.676 22H135.596ZM128.186 10.93H131.966C133.246 10.93 134.206 10.61 134.846 9.97C135.506 9.33 135.836 8.47 135.836 7.39C135.836 6.31 135.516 5.47 134.876 4.87C134.236 4.25 133.266 3.94 131.966 3.94H128.186V10.93ZM147.141 1.15V22H143.721V1.15H147.141ZM155.051 3.91V10.03H162.251V12.82H155.051V19.21H163.151V22H151.631V1.12H163.151V3.91H155.051ZM174.233 22.21C172.833 22.21 171.573 21.97 170.453 21.49C169.333 20.99 168.453 20.29 167.813 19.39C167.173 18.49 166.853 17.44 166.853 16.24H170.513C170.593 17.14 170.943 17.88 171.563 18.46C172.203 19.04 173.093 19.33 174.233 19.33C175.413 19.33 176.333 19.05 176.993 18.49C177.653 17.91 177.983 17.17 177.983 16.27C177.983 15.57 177.773 15 177.353 14.56C176.953 14.12 176.443 13.78 175.823 13.54C175.223 13.3 174.383 13.04 173.303 12.76C171.943 12.4 170.833 12.04 169.973 11.68C169.133 11.3 168.413 10.72 167.813 9.94C167.213 9.16 166.913 8.12 166.913 6.82C166.913 5.62 167.213 4.57 167.813 3.67C168.413 2.77 169.253 2.08 170.333 1.6C171.413 1.12 172.663 0.879998 174.083 0.879998C176.103 0.879998 177.753 1.39 179.033 2.41C180.333 3.41 181.053 4.79 181.193 6.55H177.413C177.353 5.79 176.993 5.14 176.333 4.6C175.673 4.06 174.803 3.79 173.723 3.79C172.743 3.79 171.943 4.04 171.323 4.54C170.703 5.04 170.393 5.76 170.393 6.7C170.393 7.34 170.583 7.87 170.963 8.29C171.363 8.69 171.863 9.01 172.463 9.25C173.063 9.49 173.883 9.75 174.923 10.03C176.303 10.41 177.423 10.79 178.283 11.17C179.163 11.55 179.903 12.14 180.503 12.94C181.123 13.72 181.433 14.77 181.433 16.09C181.433 17.15 181.143 18.15 180.563 19.09C180.003 20.03 179.173 20.79 178.073 21.37C176.993 21.93 175.713 22.21 174.233 22.21Z" fill="#190482"/>
</svg>
