<svg width="88" height="23" viewBox="0 0 88 23" fill="none" xmlns="http://www.w3.org/2000/svg">
<path d="M3.64 1.15V14.44C3.64 16.02 4.05 17.21 4.87 18.01C5.71 18.81 6.87 19.21 8.35 19.21C9.85 19.21 11.01 18.81 11.83 18.01C12.67 17.21 13.09 16.02 13.09 14.44V1.15H16.51V14.38C16.51 16.08 16.14 17.52 15.4 18.7C14.66 19.88 13.67 20.76 12.43 21.34C11.19 21.92 9.82 22.21 8.32 22.21C6.82 22.21 5.45 21.92 4.21 21.34C2.99 20.76 2.02 19.88 1.3 18.7C0.58 17.52 0.22 16.08 0.22 14.38V1.15H3.64ZM27.8329 22.21C26.4329 22.21 25.1729 21.97 24.0529 21.49C22.9329 20.99 22.0529 20.29 21.4129 19.39C20.7729 18.49 20.4529 17.44 20.4529 16.24H24.1129C24.1929 17.14 24.5429 17.88 25.1629 18.46C25.8029 19.04 26.6929 19.33 27.8329 19.33C29.0129 19.33 29.9329 19.05 30.5929 18.49C31.2529 17.91 31.5829 17.17 31.5829 16.27C31.5829 15.57 31.3729 15 30.9529 14.56C30.5529 14.12 30.0429 13.78 29.4229 13.54C28.8229 13.3 27.9829 13.04 26.9029 12.76C25.5429 12.4 24.4329 12.04 23.5729 11.68C22.7329 11.3 22.0129 10.72 21.4129 9.94C20.8129 9.16 20.5129 8.12 20.5129 6.82C20.5129 5.62 20.8129 4.57 21.4129 3.67C22.0129 2.77 22.8529 2.08 23.9329 1.6C25.0129 1.12 26.2629 0.879998 27.6829 0.879998C29.7029 0.879998 31.3529 1.39 32.6329 2.41C33.9329 3.41 34.6529 4.79 34.7929 6.55H31.0129C30.9529 5.79 30.5929 5.14 29.9329 4.6C29.2729 4.06 28.4029 3.79 27.3229 3.79C26.3429 3.79 25.5429 4.04 24.9229 4.54C24.3029 5.04 23.9929 5.76 23.9929 6.7C23.9929 7.34 24.1829 7.87 24.5629 8.29C24.9629 8.69 25.4629 9.01 26.0629 9.25C26.6629 9.49 27.4829 9.75 28.5229 10.03C29.9029 10.41 31.0229 10.79 31.8829 11.17C32.7629 11.55 33.5029 12.14 34.1029 12.94C34.7229 13.72 35.0329 14.77 35.0329 16.09C35.0329 17.15 34.7429 18.15 34.1629 19.09C33.6029 20.03 32.7729 20.79 31.6729 21.37C30.5929 21.93 29.3129 22.21 27.8329 22.21ZM42.4884 3.91V10.03H49.6884V12.82H42.4884V19.21H50.5884V22H39.0684V1.12H50.5884V3.91H42.4884ZM65.6308 22L60.8308 13.66H58.2208V22H54.8008V1.15H62.0008C63.6008 1.15 64.9508 1.43 66.0508 1.99C67.1708 2.55 68.0008 3.3 68.5408 4.24C69.1008 5.18 69.3808 6.23 69.3808 7.39C69.3808 8.75 68.9808 9.99 68.1808 11.11C67.4008 12.21 66.1908 12.96 64.5508 13.36L69.7108 22H65.6308ZM58.2208 10.93H62.0008C63.2808 10.93 64.2408 10.61 64.8808 9.97C65.5408 9.33 65.8708 8.47 65.8708 7.39C65.8708 6.31 65.5508 5.47 64.9108 4.87C64.2708 4.25 63.3008 3.94 62.0008 3.94H58.2208V10.93ZM80.6259 22.21C79.2259 22.21 77.9659 21.97 76.8459 21.49C75.7259 20.99 74.8459 20.29 74.2059 19.39C73.5659 18.49 73.2459 17.44 73.2459 16.24H76.9059C76.9859 17.14 77.3359 17.88 77.9559 18.46C78.5959 19.04 79.4859 19.33 80.6259 19.33C81.8059 19.33 82.7259 19.05 83.3859 18.49C84.0459 17.91 84.3759 17.17 84.3759 16.27C84.3759 15.57 84.1659 15 83.7459 14.56C83.3459 14.12 82.8359 13.78 82.2159 13.54C81.6159 13.3 80.7759 13.04 79.6959 12.76C78.3359 12.4 77.2259 12.04 76.3659 11.68C75.5259 11.3 74.8059 10.72 74.2059 9.94C73.6059 9.16 73.3059 8.12 73.3059 6.82C73.3059 5.62 73.6059 4.57 74.2059 3.67C74.8059 2.77 75.6459 2.08 76.7259 1.6C77.8059 1.12 79.0559 0.879998 80.4759 0.879998C82.4959 0.879998 84.1459 1.39 85.4259 2.41C86.7259 3.41 87.4459 4.79 87.5859 6.55H83.8059C83.7459 5.79 83.3859 5.14 82.7259 4.6C82.0659 4.06 81.1959 3.79 80.1159 3.79C79.1359 3.79 78.3359 4.04 77.7159 4.54C77.0959 5.04 76.7859 5.76 76.7859 6.7C76.7859 7.34 76.9759 7.87 77.3559 8.29C77.7559 8.69 78.2559 9.01 78.8559 9.25C79.4559 9.49 80.2759 9.75 81.3159 10.03C82.6959 10.41 83.8159 10.79 84.6759 11.17C85.5559 11.55 86.2959 12.14 86.8959 12.94C87.5159 13.72 87.8259 14.77 87.8259 16.09C87.8259 17.15 87.5359 18.15 86.9559 19.09C86.3959 20.03 85.5659 20.79 84.4659 21.37C83.3859 21.93 82.1059 22.21 80.6259 22.21Z" fill="#190482"/>
</svg>
