<svg width="40" height="40" viewBox="0 0 40 40" fill="none" xmlns="http://www.w3.org/2000/svg">
<path d="M4.76512 4.79503L25.7151 1.80337C25.8332 1.78643 25.9536 1.79504 26.068 1.82862C26.1825 1.86221 26.2885 1.91998 26.3787 1.99804C26.4689 2.0761 26.5413 2.17262 26.591 2.28108C26.6407 2.38953 26.6666 2.5074 26.6668 2.6267V37.3734C26.6665 37.4925 26.6407 37.6102 26.5911 37.7185C26.5415 37.8269 26.4693 37.9233 26.3792 38.0013C26.2892 38.0793 26.1835 38.1372 26.0692 38.1709C25.9549 38.2046 25.8348 38.2134 25.7168 38.1967L4.76345 35.205C4.36615 35.1484 4.00261 34.9504 3.7396 34.6473C3.4766 34.3442 3.33179 33.9563 3.33179 33.555V6.44503C3.33179 6.04372 3.4766 5.65589 3.7396 5.35277C4.00261 5.04966 4.36782 4.85162 4.76512 4.79503ZM28.3335 5.00003H35.0001C35.4421 5.00003 35.8661 5.17563 36.1786 5.48819C36.4912 5.80075 36.6668 6.22467 36.6668 6.6667V33.3334C36.6668 33.7754 36.4912 34.1993 36.1786 34.5119C35.8661 34.8244 35.4421 35 35.0001 35H28.3335V5.00003ZM17.0001 20L21.6668 13.3334H17.6668L15.0001 17.1434L12.3335 13.3334H8.33345L13.0001 20L8.33345 26.6667H12.3335L15.0001 22.8567L17.6668 26.6667H21.6668L17.0001 20Z" fill="#C2D9FF"/>
</svg>
