<svg width="35" height="40" viewBox="0 0 35 40" fill="none" xmlns="http://www.w3.org/2000/svg">
<path fill-rule="evenodd" clip-rule="evenodd" d="M0 4C0 2.93913 0.421428 1.92172 1.17157 1.17157C1.92172 0.421427 2.93913 0 4 0L25.8853 0L34.6667 8.78133V36C34.6667 37.0609 34.2452 38.0783 33.4951 38.8284C32.7449 39.5786 31.7275 40 30.6667 40H4C2.93913 40 1.92172 39.5786 1.17157 38.8284C0.421428 38.0783 0 37.0609 0 36V4ZM6.66667 16H2.66667V29.3333H5.33333V24H6.66667C7.72753 24 8.74495 23.5786 9.49509 22.8284C10.2452 22.0783 10.6667 21.0609 10.6667 20C10.6667 18.9391 10.2452 17.9217 9.49509 17.1716C8.74495 16.4214 7.72753 16 6.66667 16ZM17.3333 16H13.3333V29.3333H17.3333C18.3942 29.3333 19.4116 28.9119 20.1618 28.1618C20.9119 27.4116 21.3333 26.3942 21.3333 25.3333V20C21.3333 18.9391 20.9119 17.9217 20.1618 17.1716C19.4116 16.4214 18.3942 16 17.3333 16ZM24 29.3333V16H32V18.6667H26.6667V21.3333H29.3333V24H26.6667V29.3333H24Z" fill="#C2D9FF"/>
<path d="M6.33333 21.6667H5V19H6.33333C6.68696 19 7.02609 19.1405 7.27614 19.3905C7.52619 19.6406 7.66667 19.9797 7.66667 20.3333C7.66667 20.687 7.52619 21.0261 7.27614 21.2761C7.02609 21.5262 6.68696 21.6667 6.33333 21.6667ZM15.6667 27V19H17C17.3536 19 17.6928 19.1405 17.9428 19.3905C18.1929 19.6406 18.3333 19.9797 18.3333 20.3333V25.6667C18.3333 26.0203 18.1929 26.3594 17.9428 26.6095C17.6928 26.8595 17.3536 27 17 27H15.6667Z" fill="#C2D9FF"/>
</svg>
