<svg width="40" height="40" viewBox="0 0 40 40" fill="none" xmlns="http://www.w3.org/2000/svg">
<path d="M16.6667 18.3333V13.3333L25 20L16.6667 26.6667V21.6667H1.66669V18.3333H16.6667ZM4.09669 25H7.63669C8.8001 27.8651 10.9229 30.237 13.6419 31.7099C16.3609 33.1828 19.5072 33.6652 22.5426 33.0746C25.578 32.484 28.3139 30.857 30.2822 28.4721C32.2506 26.0871 33.3291 23.0923 33.3334 20C33.3351 16.9044 32.2596 13.9047 30.2915 11.5154C28.3234 9.12602 25.5852 7.49593 22.5466 6.90469C19.5081 6.31345 16.3584 6.7979 13.638 8.27496C10.9175 9.75202 8.7958 12.1296 7.63669 15H4.09669C6.22002 8.23833 12.5367 3.33333 20 3.33333C29.205 3.33333 36.6667 10.795 36.6667 20C36.6667 29.205 29.205 36.6667 20 36.6667C12.5367 36.6667 6.22002 31.7617 4.09669 25Z" fill="#C2D9FF"/>
</svg>
