<svg width="103" height="23" viewBox="0 0 103 23" fill="none" xmlns="http://www.w3.org/2000/svg">
<path d="M17.133 7.15C16.593 6.11 15.843 5.33 14.883 4.81C13.923 4.27 12.813 4 11.553 4C10.173 4 8.94297 4.31 7.86297 4.93C6.78297 5.55 5.93297 6.43 5.31297 7.57C4.71297 8.71 4.41297 10.03 4.41297 11.53C4.41297 13.03 4.71297 14.36 5.31297 15.52C5.93297 16.66 6.78297 17.54 7.86297 18.16C8.94297 18.78 10.173 19.09 11.553 19.09C13.413 19.09 14.923 18.57 16.083 17.53C17.243 16.49 17.953 15.08 18.213 13.3H10.383V10.57H21.873V13.24C21.653 14.86 21.073 16.35 20.133 17.71C19.213 19.07 18.003 20.16 16.503 20.98C15.023 21.78 13.373 22.18 11.553 22.18C9.59297 22.18 7.80297 21.73 6.18297 20.83C4.56297 19.91 3.27297 18.64 2.31297 17.02C1.37297 15.4 0.902969 13.57 0.902969 11.53C0.902969 9.49 1.37297 7.66 2.31297 6.04C3.27297 4.42 4.56297 3.16 6.18297 2.26C7.82297 1.34 9.61297 0.879998 11.553 0.879998C13.773 0.879998 15.743 1.43 17.463 2.53C19.203 3.61 20.463 5.15 21.243 7.15H17.133ZM37.8161 17.74H29.0861L27.5861 22H24.0161L31.4861 1.12H35.4461L42.9161 22H39.3161L37.8161 17.74ZM36.8561 14.95L33.4661 5.26L30.0461 14.95H36.8561ZM68.1241 1.15V22H64.7041V7.72L58.3441 22H55.9741L49.5841 7.72V22H46.1641V1.15H49.8541L57.1741 17.5L64.4641 1.15H68.1241ZM76.0391 3.91V10.03H83.2391V12.82H76.0391V19.21H84.1391V22H72.6191V1.12H84.1391V3.91H76.0391ZM95.2216 22.21C93.8216 22.21 92.5616 21.97 91.4416 21.49C90.3216 20.99 89.4416 20.29 88.8016 19.39C88.1616 18.49 87.8416 17.44 87.8416 16.24H91.5016C91.5816 17.14 91.9316 17.88 92.5516 18.46C93.1916 19.04 94.0816 19.33 95.2216 19.33C96.4016 19.33 97.3216 19.05 97.9816 18.49C98.6416 17.91 98.9716 17.17 98.9716 16.27C98.9716 15.57 98.7616 15 98.3416 14.56C97.9416 14.12 97.4316 13.78 96.8116 13.54C96.2116 13.3 95.3716 13.04 94.2916 12.76C92.9316 12.4 91.8216 12.04 90.9616 11.68C90.1216 11.3 89.4016 10.72 88.8016 9.94C88.2016 9.16 87.9016 8.12 87.9016 6.82C87.9016 5.62 88.2016 4.57 88.8016 3.67C89.4016 2.77 90.2416 2.08 91.3216 1.6C92.4016 1.12 93.6516 0.879998 95.0716 0.879998C97.0916 0.879998 98.7416 1.39 100.022 2.41C101.322 3.41 102.042 4.79 102.182 6.55H98.4016C98.3416 5.79 97.9816 5.14 97.3216 4.6C96.6616 4.06 95.7916 3.79 94.7116 3.79C93.7316 3.79 92.9316 4.04 92.3116 4.54C91.6916 5.04 91.3816 5.76 91.3816 6.7C91.3816 7.34 91.5716 7.87 91.9516 8.29C92.3516 8.69 92.8516 9.01 93.4516 9.25C94.0516 9.49 94.8716 9.75 95.9116 10.03C97.2916 10.41 98.4116 10.79 99.2716 11.17C100.152 11.55 100.892 12.14 101.492 12.94C102.112 13.72 102.422 14.77 102.422 16.09C102.422 17.15 102.132 18.15 101.552 19.09C100.992 20.03 100.162 20.79 99.0616 21.37C97.9816 21.93 96.7016 22.21 95.2216 22.21Z" fill="#190482"/>
</svg>
